<svg height="24" width="24" xmlns="http://www.w3.org/2000/svg"><g transform="translate(0 -1028.4)"><path d="m-.0000002 1036 .0000002 8.4 12 8v-8.4z" fill="#e67e22"/><path d="m24 1036v8.4l-12 8v-8.4z" fill="#f39c12"/><path d="m12 1028.4-12 7.6 12 8 12-8z" fill="#f1c40f"/><path d="m8.5 1030.6v1.5c0 1.3 1.567 2.3 3.5 2.3s3.5-1 3.5-2.3v-1.5z" fill="#e67e22"/><path d="m8.5 1030.6v1.5c0 1.3 1.567 2.3 3.5 2.3v-3.8z" fill="#e67e22"/><path d="m16 9a3.5 3 0 1 1 -7 0 3.5 3 0 1 1 7 0z" fill="#f1c40f" transform="matrix(1 0 0 .75 -.5 1023.9)"/><path d="m15 1034.6v1.5c0 1.3 1.567 2.3 3.5 2.3s3.5-1 3.5-2.3v-1.5z" fill="#e67e22"/><path d="m15 1034.6v1.5c0 1.3 1.567 2.3 3.5 2.3v-3.8z" fill="#e67e22"/><path d="m16 9a3.5 3 0 1 1 -7 0 3.5 3 0 1 1 7 0z" fill="#f1c40f" transform="matrix(1 0 0 .75 6 1027.9)"/><path d="m2 1034.1v1.5c0 1.3 1.567 2.3 3.5 2.3s3.5-1 3.5-2.3v-1.5z" fill="#e67e22"/><path d="m2 1034.1v1.5c0 1.3 1.567 2.3 3.5 2.3v-3.8z" fill="#e67e22"/><path d="m16 9a3.5 3 0 1 1 -7 0 3.5 3 0 1 1 7 0z" fill="#f1c40f" transform="matrix(1 0 0 .75 -7 1027.4)"/><path d="m8.5 1038.1v1.5c0 1.3 1.567 2.3 3.5 2.3s3.5-1 3.5-2.3v-1.5z" fill="#e67e22"/><path d="m8.5 1038.1v1.5c0 1.3 1.567 2.3 3.5 2.3v-3.8z" fill="#e67e22"/><path d="m16 9a3.5 3 0 1 1 -7 0 3.5 3 0 1 1 7 0z" fill="#f1c40f" transform="matrix(1 0 0 .75 -.5 1031.4)"/></g></svg>